<svg width="180" height="180" viewBox="0 0 180 180" fill="none" xmlns="http://www.w3.org/2000/svg">
<g clip-path="url(#clip0_246_2)">
<mask id="mask0_246_2" style="mask-type:luminance" maskUnits="userSpaceOnUse" x="0" y="0" width="180" height="180">
<path d="M180 0H0V180H180V0Z" fill="white"/>
</mask>
<g mask="url(#mask0_246_2)">
<path fill-rule="evenodd" clip-rule="evenodd" d="M142.713 4.73785L175.261 37.2859C181.487 43.5129 181.487 53.702 175.26 59.9289L147.013 88.1758L133.216 74.3789L158.987 48.6079L131.392 21.0128L105.522 46.8829L91.7242 33.0848L120.071 4.73886C126.298 -1.48814 136.486 -1.48814 142.713 4.73785ZM88.2751 64.13L64.129 88.2759L50.332 74.4778L74.4781 50.3328L88.2751 64.13ZM46.8821 105.523L21.0121 131.393L48.6072 158.988L74.4781 133.118L88.2751 146.915L59.929 175.262C53.702 181.489 43.5132 181.489 37.2862 175.262L4.73909 142.714C-1.4879 136.488 -1.4879 126.299 4.73909 120.072L33.0851 91.725L46.8821 105.523Z" fill="#E31E24"/>
<path fill-rule="evenodd" clip-rule="evenodd" d="M142.713 4.73785L175.261 37.2859C181.487 43.5129 181.487 53.702 175.26 59.9289L147.013 88.1758L133.216 74.3789L158.987 48.6079L131.392 21.0128L105.522 46.8829L91.7242 33.0848L120.071 4.73886C126.298 -1.48814 136.486 -1.48814 142.713 4.73785ZM88.2751 64.13L64.129 88.2759L50.332 74.4778L74.4781 50.3328L88.2751 64.13ZM46.8821 105.523L21.0121 131.393L48.6072 158.988L74.4781 133.118L88.2751 146.915L59.929 175.262C53.702 181.489 43.5132 181.489 37.2862 175.262L4.73909 142.714C-1.4879 136.488 -1.4879 126.299 4.73909 120.072L33.0851 91.725L46.8821 105.523Z" fill="#E31E24"/>
<path fill-rule="evenodd" clip-rule="evenodd" d="M4.73909 37.2859L37.2862 4.73785C43.5132 -1.48814 53.702 -1.48814 59.9282 4.73886L110.696 55.5059L124.493 69.3039L110.696 83.1019L83.1012 110.697L131.392 158.988L158.987 131.393L145.189 117.596L158.987 103.798L175.261 120.072C181.487 126.299 181.487 136.488 175.261 142.714L142.713 175.262C136.486 181.489 126.298 181.489 120.071 175.262L69.3042 124.494L55.5062 110.697L4.73909 59.9289C-1.4879 53.702 -1.4879 43.5129 4.73909 37.2859ZM96.8981 69.3039L48.6072 21.0128L21.0131 48.6079L69.3042 96.8989L96.8981 69.3039Z" fill="#0477B3"/>
</g>
</g>
<defs>
<clipPath id="clip0_246_2">
<rect width="180" height="180" fill="white"/>
</clipPath>
</defs>
</svg>
